<svg width="144" height="134" viewBox="0 0 144 134" fill="none" xmlns="http://www.w3.org/2000/svg">
<path d="M40.9663 130.442C40.7487 130.442 40.5424 130.335 40.4152 130.153L0.124029 72.1511C-0.0153897 71.95 -0.0389402 71.6895 0.0618561 71.4673L29.2438 6.93489C29.3446 6.71177 29.5546 6.56047 29.7948 6.53844L99.266 0.00667519C99.5053 -0.0306709 99.7389 0.0919016 99.8793 0.293954L140.17 58.2946C140.31 58.4957 140.333 58.7562 140.233 58.9784L111.052 123.513C110.951 123.735 110.741 123.886 110.501 123.909L41.0284 130.44C41.0077 130.442 40.987 130.442 40.9663 130.442ZM1.45133 71.6818L41.2922 129.036L109.988 122.578L138.843 58.7639L99.0023 1.40955L30.3073 7.86759L1.45133 71.6818ZM110.438 123.225H110.455H110.438Z" fill="#111111"/>
<path d="M40.7249 130.296L29.5742 71.2809L29.5195 6.76367L83.8468 23.0189L140.182 58.6444L98.3417 96.4504L40.7249 130.296ZM30.1959 7.68105L30.243 71.2158L41.2091 129.219L97.9489 95.8969L139.059 58.7402L83.5294 23.626L30.1959 7.68105Z" fill="#111111"/>
<path d="M84.738 25.726C85.8553 25.726 86.7611 24.8036 86.7611 23.6657C86.7611 22.5279 85.8553 21.6055 84.738 21.6055C83.6206 21.6055 82.7148 22.5279 82.7148 23.6657C82.7148 24.8036 83.6206 25.726 84.738 25.726Z" fill="#111111"/>
<path d="M84.7337 27.9101C82.4343 27.9101 80.5625 26.0064 80.5625 23.666C80.5625 21.3266 82.4343 19.4229 84.7337 19.4229C87.0332 19.4229 88.904 21.3266 88.904 23.666C88.904 26.0064 87.0332 27.9101 84.7337 27.9101ZM84.7337 23.5434L84.6084 23.666C84.6084 23.734 84.6649 23.7895 84.7337 23.7895V23.5434Z" fill="#111111"/>
<path d="M98.2536 98.1282C99.3709 98.1282 100.277 97.2058 100.277 96.068C100.277 94.9302 99.3709 94.0078 98.2536 94.0078C97.1363 94.0078 96.2305 94.9302 96.2305 96.068C96.2305 97.2058 97.1363 98.1282 98.2536 98.1282Z" fill="#111111"/>
<path d="M98.2484 100.313C95.9489 100.313 94.0781 98.4096 94.0781 96.0692C94.0781 93.7289 95.9489 91.8252 98.2484 91.8252C100.548 91.8252 102.42 93.7289 102.42 96.0692C102.42 98.4096 100.548 100.313 98.2484 100.313ZM98.2484 95.9467L98.1241 96.0692C98.1241 96.1363 98.1796 96.1918 98.2484 96.1918V95.9467Z" fill="#111111"/>
<path d="M41.4684 131.816C42.5858 131.816 43.4915 130.893 43.4915 129.756C43.4915 128.618 42.5858 127.695 41.4684 127.695C40.3511 127.695 39.4453 128.618 39.4453 129.756C39.4453 130.893 40.3511 131.816 41.4684 131.816Z" fill="#111111"/>
<path d="M41.4634 134C39.1639 134 37.293 132.096 37.293 129.756C37.293 127.415 39.1639 125.512 41.4634 125.512C43.7629 125.512 45.6347 127.415 45.6347 129.756C45.6347 132.096 43.7629 134 41.4634 134ZM41.4634 129.633L41.339 129.756C41.339 129.823 41.3946 129.878 41.4634 129.878V129.633Z" fill="#111111"/>
<path d="M29.8631 73.9614C30.9805 73.9614 31.8863 73.0389 31.8863 71.9011C31.8863 70.7632 30.9805 69.8408 29.8631 69.8408C28.7457 69.8408 27.8398 70.7632 27.8398 71.9011C27.8398 73.0389 28.7457 73.9614 29.8631 73.9614Z" fill="#111111"/>
<path d="M29.8587 76.1445C27.5593 76.1445 25.6875 74.2407 25.6875 71.9023C25.6875 69.5619 27.5593 67.6582 29.8587 67.6582C32.1582 67.6582 34.029 69.5619 34.029 71.9023C34.029 74.2407 32.1582 76.1445 29.8587 76.1445ZM29.8587 71.7778L29.7334 71.9023C29.7334 71.9693 29.7909 72.0249 29.8587 72.0249V71.7778Z" fill="#111111"/>
<path d="M139.629 60.8539C140.746 60.8539 141.652 59.9315 141.652 58.7937C141.652 57.6558 140.746 56.7334 139.629 56.7334C138.511 56.7334 137.605 57.6558 137.605 58.7937C137.605 59.9315 138.511 60.8539 139.629 60.8539Z" fill="#111111"/>
<path d="M139.624 63.037C137.325 63.037 135.453 61.1333 135.453 58.7949C135.453 56.4545 137.325 54.5508 139.624 54.5508C141.924 54.5508 143.796 56.4545 143.796 58.7949C143.796 61.1333 141.924 63.037 139.624 63.037ZM139.624 58.6704L139.5 58.7949C139.5 58.8619 139.556 58.9174 139.624 58.9174V58.6704Z" fill="#111111"/>
<path d="M29.8631 9.28461C30.9805 9.28461 31.8863 8.36219 31.8863 7.22433C31.8863 6.08648 30.9805 5.16406 29.8631 5.16406C28.7457 5.16406 27.8398 6.08648 27.8398 7.22433C27.8398 8.36219 28.7457 9.28461 29.8631 9.28461Z" fill="#111111"/>
<path d="M29.8587 11.4667C27.5593 11.4667 25.6875 9.563 25.6875 7.22262C25.6875 4.8832 27.5593 2.97949 29.8587 2.97949C32.1582 2.97949 34.029 4.8832 34.029 7.22262C34.029 9.563 32.1582 11.4667 29.8587 11.4667ZM29.8587 7.10005L29.7334 7.22262C29.7334 7.29061 29.7899 7.34615 29.8587 7.34615V7.10005Z" fill="#111111"/>
<path d="M110.438 123.912C110.363 123.912 110.287 123.9 110.213 123.873L57.2434 104.865L0.344414 72.3526C0.15601 72.2454 0.028837 72.0519 0.00434457 71.8336C-0.0201482 71.6153 0.0599237 71.3969 0.219125 71.2495L43.0283 31.3732L99.0032 0.0884304C99.1878 -0.0169054 99.4092 -0.0245661 99.6051 0.063533C99.7982 0.152589 99.9395 0.32783 99.9866 0.537544L112.528 56.5819L111.113 123.241C111.108 123.462 111 123.665 110.822 123.791C110.708 123.871 110.574 123.912 110.438 123.912ZM1.81773 71.621L57.7992 103.62L109.784 122.265L111.195 56.7189L98.8684 1.72879L43.8092 32.4801L1.81773 71.621Z" fill="#111111"/>
<path d="M98.4625 96.3307L98.1865 96.2349L29.5234 71.9695L29.7448 71.7741L84.8474 23.3438L98.4625 96.3307ZM30.1866 71.8392L98.0216 95.8136L84.6251 23.993L30.1866 71.8392Z" fill="#111111"/>
<path d="M57.0263 105.505L42.5898 30.8271L113.187 56.486L57.0263 105.505ZM44.3721 32.9319L57.9043 102.931L110.545 56.9839L44.3721 32.9319Z" fill="#111111"/>
<path d="M30.4469 6.88324L29.2695 7.55566L42.8967 32.2129L44.0741 31.5405L30.4469 6.88324Z" fill="#111111"/>
<path d="M42.0286 130.127L40.8906 129.388L56.8982 103.849L58.0362 104.588L42.0286 130.127Z" fill="#111111"/>
<path d="M111.919 56.0491L111.82 57.417L139.57 59.4777L139.668 58.1098L111.919 56.0491Z" fill="#111111"/>
</svg>
