<svg width="173" height="33" viewBox="0 0 173 33" fill="none" xmlns="http://www.w3.org/2000/svg">
<g clip-path="url(#clip0_1866_20615)">
<path fill-rule="evenodd" clip-rule="evenodd" d="M32.1432 14.3745C32.1432 12.7549 30.7101 11.7426 29.0722 11.7426H16.9929C15.7645 11.7426 15.7645 11.5402 15.7645 10.3255L17.6071 5.46656C17.8118 4.8592 18.426 4.25184 19.0402 4.25184H23.9538C24.7728 4.25184 24.9775 4.45429 24.9775 4.8592V5.26411L23.3396 9.51564H34.1905L36.2379 4.04939C36.4426 3.44202 36.6473 2.83466 36.6473 2.42975C36.6473 0.405214 34.8047 -0.202148 32.7574 -0.202148H12.284C9.82722 0.000305563 8.59882 0.607668 7.77988 3.03712L4.50414 11.9451C4.29941 12.35 4.29941 12.5525 4.29941 13.1598C4.29941 15.1844 5.73254 15.9942 7.98462 15.9942H19.245C20.2686 15.9942 20.6781 15.9942 20.6781 16.804C20.6781 17.0064 20.6781 17.0064 20.6781 17.2089L18.8355 22.2702C18.6308 23.0801 18.2213 23.0801 17.4024 23.0801H12.6935C11.6698 23.0801 11.6698 22.8776 11.6698 21.8653L13.3077 17.6138H2.4568L0 24.2948C0 26.7242 1.02367 27.534 3.48047 27.534H23.5444C26.0012 27.534 27.8438 26.7242 28.8675 24.0923L31.9385 15.7917C31.9385 15.1844 32.1432 14.7794 32.1432 14.3745ZM34.8047 14.7794L30.0959 27.534H37.4663L42.1751 14.7794H34.8047ZM42.7893 13.5647L44.4272 9.11073H37.0568L35.4189 13.5647H42.7893ZM71.4521 17.2089C71.4521 15.5893 70.2237 14.7794 68.3811 14.7794H44.8367L40.3325 27.534H47.9077L51.1834 18.4236C51.5929 17.8163 51.7976 17.6138 52.6166 17.6138C53.2308 17.6138 53.4355 17.8163 53.4355 18.4236L50.1598 27.534H57.7349L61.0107 18.4236C61.4201 17.8163 61.6249 17.6138 62.4438 17.6138C63.058 17.6138 63.2627 17.8163 63.2627 18.4236L59.987 27.534H67.5621L71.0426 17.8163C71.2473 17.6138 71.4521 17.4114 71.4521 17.2089ZM88.8544 14.7794H74.9325L68.3811 33.0003H75.9562L78.0035 27.534H84.555C87.4213 27.534 88.445 26.7242 89.2639 24.4972L91.7207 17.4114C91.7207 17.2089 91.9254 17.0064 91.9254 16.804C91.516 15.5893 90.4923 14.7794 88.8544 14.7794ZM81.2793 24.0923C81.0746 24.6997 80.6651 24.9021 80.0509 24.9021C79.0272 24.9021 78.8225 24.4972 79.0272 23.8899L81.0746 18.2212C81.484 17.6138 81.6888 17.4114 82.5077 17.4114C83.1219 17.4114 83.3266 17.6138 83.3266 18.2212L81.2793 24.0923ZM98.2722 5.46656L90.0828 27.534H97.8627L105.847 5.46656H98.2722ZM113.013 13.7672L114.651 9.11073H106.871L105.233 13.5647H113.013V13.7672ZM104.824 14.7794L100.32 27.534H108.099L112.604 14.7794H104.824ZM121.202 24.0923C120.998 24.6997 120.588 24.9021 119.769 24.9021C119.155 24.9021 118.746 24.6997 118.746 24.0923C118.746 23.8899 118.746 23.8899 118.746 23.6874L121.202 18.2212C121.612 17.6138 121.817 17.4114 122.636 17.4114C123.25 17.4114 123.454 17.6138 123.454 18.2212L122.84 20.2457H130.415L131.234 18.0187C131.439 17.4113 131.644 17.0064 131.644 16.804C131.644 15.7917 130.415 15.1844 129.392 15.1844H117.722C116.084 15.1844 114.856 16.1966 114.241 17.6138L111.58 24.4972C111.375 25.1046 111.375 25.712 111.375 26.1169C111.375 27.534 112.604 28.1414 114.446 28.1414H125.297C127.14 28.1414 127.959 27.7365 128.368 26.3193L129.392 23.2825H121.817L121.202 24.0923ZM153.346 17.4114L154.369 14.7794H152.731L154.574 9.31319H146.794L144.951 14.7794H143.314L142.29 17.6138H143.928L140.447 27.534H148.227L151.912 17.4114H153.346ZM165.22 14.7794L161.74 24.0923C161.535 24.6997 161.125 25.1046 160.511 25.1046C159.692 25.1046 159.692 24.6997 159.692 23.8899L162.968 14.7794H155.393L151.912 24.2948C151.912 24.6997 151.708 25.1046 151.708 25.3071C151.708 26.9267 153.141 27.534 154.574 27.534H160.307L158.259 33.2028H166.039L172.795 14.9819L165.22 14.7794ZM144.337 9.11073H136.557L134.92 13.5647H142.699L144.337 9.11073ZM134.51 14.7794L130.006 27.534H137.786L142.495 14.7794H134.51Z" fill="black"/>
</g>
<defs>
<clipPath id="clip0_1866_20615">
<rect width="173" height="33" fill="white"/>
</clipPath>
</defs>
</svg>
